<?xml version="1.0" standalone="no"?><!DOCTYPE svg PUBLIC "-//W3C//DTD SVG 1.1//EN" "http://www.w3.org/Graphics/SVG/1.1/DTD/svg11.dtd"><svg t="1589791143689" class="icon" viewBox="0 0 1025 1024" version="1.1" xmlns="http://www.w3.org/2000/svg" p-id="8737" xmlns:xlink="http://www.w3.org/1999/xlink" width="48.046875" height="48"><defs><style type="text/css"></style></defs><path d="M1023.804123 812.282602l0.306985-103.863296c0 0-68.560008-13.609673-69.68562-18.21445-1.330269-5.116419-2.660538-10.130509-4.195463-14.939942 7.981613-14.837614 46.661737-47.582692 46.661737-47.582692L919.429185 524.637554c0 0-50.140901 41.238333-62.624963 47.173379-5.832717-2.251224-11.870091-4.297792-18.419107-6.139702-6.753672-1.637254-25.377436-67.741381-25.377436-67.741381l-104.067952-0.818627c0 0-11.256121 63.955231-28.140302 68.355351-5.62806 1.637254-11.256121 3.78615-16.884181 6.344359-12.484061-6.037374-62.624963-47.992006-62.624963-47.992006l-77.360248 104.681923c0 0 38.782452 39.089437 41.340662 52.187469-1.637254 4.093135-3.172179 8.288598-4.604777 12.58639-16.679524 5.832717-63.955231 15.144599-63.955231 15.144599l0.204657 103.863296c0 0 55.052663 11.460777 65.490157 20.670331 2.148896 5.935045 4.604777 11.767763 7.367643 17.498151-12.688718 15.860897-46.661737 42.363945-46.661737 42.363945l79.816129 103.863296c0 0 62.624963-40.522035 72.960128-42.875587 5.116419 2.251224 10.335165 4.297792 15.656241 6.139702 9.41421 3.274508 16.065554 63.750575 16.065554 63.750575l103.965624 0.204657c0 0 3.479165-59.350455 11.153792-61.704007 7.572299-2.353553 14.939942-5.116419 22.102928-8.288598 8.697911 3.376836 49.833916 44.410513 49.833916 44.410513l102.840012-104.681923c0 0-38.168482-26.298391-48.708304-40.522035 2.865194-5.935045 5.525732-11.972419 7.776956-18.112122C960.258205 825.482962 1023.804123 812.282602 1023.804123 812.282602L1023.804123 812.282602M759.285286 890.973119c-72.448486 0-131.184971-58.736484-131.184971-131.184971 0-72.448486 58.736484-131.184971 131.184971-131.184971 72.448486 0 131.184971 58.736484 131.184971 131.184971C890.470257 832.338963 831.631444 890.973119 759.285286 890.973119L759.285286 890.973119M425.490143 492.097132c119.31488 0 240.778655-117.370641 240.778655-241.597282 0-124.124313-115.631058-250.49985-234.945938-250.49985-119.212551 0-237.913461 129.445388-237.913461 253.569701C193.409399 377.796343 306.175263 492.097132 425.490143 492.097132L425.490143 492.097132M477.984597 543.875287 239.354838 543.875287c-59.65744 0-149.194764 31.107825-178.972319 124.226641-29.777556 93.118817-29.777556 93.118817-59.65744 186.237634-14.939942 46.764065 203.531128 70.606575 420.876586 69.890277 72.141501-0.306985 23.023883-59.452783 23.023883-134.664135C444.625548 618.268012 590.750461 543.875287 477.984597 543.875287L477.984597 543.875287M477.984597 543.875287 477.984597 543.875287z" p-id="8738"></path></svg>