<?xml version="1.0" standalone="no"?><!DOCTYPE svg PUBLIC "-//W3C//DTD SVG 1.1//EN" "http://www.w3.org/Graphics/SVG/1.1/DTD/svg11.dtd"><svg t="1589791162887" class="icon" viewBox="0 0 1024 1024" version="1.1" xmlns="http://www.w3.org/2000/svg" p-id="9468" xmlns:xlink="http://www.w3.org/1999/xlink" width="48" height="48"><defs><style type="text/css"></style></defs><path d="M146.285714 73.142857h731.428572a48.761905 48.761905 0 0 1 48.761904 48.761905v780.190476a48.761905 48.761905 0 0 1-48.761904 48.761905H146.285714a48.761905 48.761905 0 0 1-48.761904-48.761905V121.904762a48.761905 48.761905 0 0 1 48.761904-48.761905z m170.666667 292.571429a24.380952 24.380952 0 0 0 0 48.761904h487.619048a24.380952 24.380952 0 0 0 0-48.761904H316.952381z m0 170.666666a24.380952 24.380952 0 0 0 0 48.761905h48.761905a24.380952 24.380952 0 0 0 0-48.761905h-48.761905z m0-341.333333a24.380952 24.380952 0 0 0 0 48.761905h487.619048a24.380952 24.380952 0 0 0 0-48.761905H316.952381zM195.047619 195.047619v48.761905h48.761905V195.047619H195.047619z m0 170.666667v48.761904h48.761905v-48.761904H195.047619z m0 170.666666v48.761905h48.761905v-48.761905H195.047619z m390.095238 170.666667a73.142857 73.142857 0 0 0-73.142857 73.142857v48.761905h292.571429v-48.761905a73.142857 73.142857 0 0 0-73.142858-73.142857h-146.285714z m73.142857-24.380952a73.142857 73.142857 0 1 0 0-146.285715 73.142857 73.142857 0 0 0 0 146.285715z" p-id="9469"></path></svg>